<?xml version="1.0" encoding="iso-8859-1"?>
<!-- Generator: Adobe Illustrator 19.0.0, SVG Export Plug-In . SVG Version: 6.00 Build 0)  -->
<svg version="1.1" id="Layer_1" xmlns="http://www.w3.org/2000/svg" xmlns:xlink="http://www.w3.org/1999/xlink" x="0px" y="0px"
	 viewBox="0 0 511.999 511.999" style="enable-background:new 0 0 511.999 511.999;" xml:space="preserve">
<path style="fill:#A18671;" d="M392.11,439.816h-7.855c0.397-2.645,0.595-6.192,0.595-9.353c0-37.742-28.842-68.383-64.428-68.383
	c-35.573,0-64.415,30.599-64.415,68.341c0-37.742-28.842-68.362-64.415-68.362c-35.586,0-64.428,30.667-64.428,68.409
	c0,3.161,0.198,6.705,0.595,9.349h-7.855c-36.247,0-58.98-38.949-41.021-70.448l73.936-129.215c0.013,0.013,0.026,0.025,0.04,0.038
	c23.486,29.53,60.95,48.619,103.148,48.619c42.251,0,79.768-19.153,103.254-48.748l0.013-0.015l73.857,129.309
	C451.09,400.842,428.358,439.816,392.11,439.816z"/>
<g>
	<path style="fill:#F8A805;" d="M137.901,110.573c-26.882,0-48.674-21.792-48.674-48.674s21.792-48.674,48.674-48.674
		s48.674,21.792,48.674,48.674L137.901,110.573z"/>
	<path style="fill:#F8A805;" d="M374.112,110.573c26.882,0,48.674-21.792,48.674-48.674s-21.792-48.674-48.674-48.674
		c-26.882,0-48.674,21.792-48.674,48.674L374.112,110.573z"/>
</g>
<path style="fill:#A18671;" d="M384.85,167.484c0,27.215-9.521,52.328-25.576,72.561l-0.013,0.013
	c-23.486,29.596-61.003,48.744-103.254,48.744c-42.198,0-79.662-19.096-103.148-48.625c-0.013-0.013-0.026-0.04-0.04-0.053
	c-16.107-20.246-25.655-45.399-25.655-72.64c0-67.007,57.684-121.332,128.843-121.332S384.85,100.477,384.85,167.484z"/>
<g>
	<path style="fill:#F8A805;" d="M256.007,430.407c0,3.161-0.198,6.255-0.595,9.297c-4.271,33.365-31.222,59.072-63.82,59.072
		c-32.611,0-59.562-25.708-63.833-59.072c-0.397-3.042-0.595-6.136-0.595-9.297c0-37.742,28.842-68.356,64.428-68.356
		C227.165,362.051,256.007,392.665,256.007,430.407z"/>
	<path style="fill:#F8A805;" d="M384.85,430.407c0,3.161-0.198,6.255-0.595,9.297c-4.271,33.365-31.222,59.072-63.833,59.072
		c-32.598,0-59.548-25.708-63.82-59.072c-0.397-3.042-0.595-6.136-0.595-9.297c0-37.742,28.842-68.356,64.415-68.356
		C356.008,362.051,384.85,392.665,384.85,430.407z"/>
</g>
<g>
	<path style="fill:#231F20;" d="M444.593,362.736l-69.592-121.758c15.109-21.86,23.072-47.081,23.072-73.496
		c0-16.024-2.978-31.398-8.428-45.663c26.637-6.91,46.365-31.155,46.365-59.923C436.011,27.768,408.244,0,374.114,0
		c-28.242,0-52.108,19.018-59.51,44.915c-17.875-7.696-37.715-11.986-58.596-11.986c-20.881,0-40.721,4.29-58.596,11.986
		C190.008,19.018,166.141,0,137.901,0c-34.13,0-61.898,27.768-61.898,61.898c0,28.768,19.728,53.014,46.365,59.923
		c-5.45,14.264-8.428,29.639-8.428,45.663c0,26.446,7.981,51.683,23.121,73.549L67.394,362.761
		c-10.772,18.897-10.701,41.374,0.194,60.128c10.427,17.948,28.719,28.969,49.338,29.942c9.368,34.426,39.717,59.168,74.665,59.168
		c26.497,0,50.351-14.23,64.418-36.11c14.069,21.883,37.919,36.11,64.412,36.11c34.955,0,65.311-24.753,74.669-59.168
		c20.615-0.976,38.895-12,49.323-29.951C455.311,404.12,455.375,381.64,444.593,362.736z M374.114,26.448
		c19.547,0,35.45,15.902,35.45,35.45c0,18.536-14.303,33.785-32.451,35.314c-9.911-15.267-22.948-28.525-38.261-38.97
		C340.687,40.405,355.801,26.448,374.114,26.448z M371.625,167.484c0,23.309-7.813,45.504-22.597,64.199
		c-0.042,0.052-0.083,0.103-0.124,0.155c-22.059,27.799-55.918,43.74-92.896,43.74c-36.878,0-70.665-15.865-92.72-43.534
		c-0.04-0.052-0.079-0.102-0.12-0.152l0,0c-14.902-18.732-22.779-41.004-22.779-64.408c0-59.611,51.867-108.108,115.619-108.108
		S371.625,107.873,371.625,167.484z M102.451,61.898c0-19.548,15.902-35.45,35.45-35.45c18.313,0,33.425,13.957,35.262,31.794
		c-15.312,10.447-28.35,23.704-38.261,38.97C116.754,95.683,102.451,80.435,102.451,61.898z M242.294,438.024
		c-3.469,27.095-25.265,47.526-50.703,47.526c-25.445,0-47.247-20.433-50.72-47.561c-0.321-2.456-0.484-5.008-0.484-7.584
		c0-30.4,22.97-55.13,51.204-55.13c28.227,0,51.191,24.732,51.191,55.13C242.783,432.98,242.621,435.531,242.294,438.024z
		 M371.138,438.024c-3.469,27.095-25.271,47.528-50.716,47.528c-25.437,0-47.234-20.433-50.707-47.561
		c-0.321-2.46-0.484-5.012-0.484-7.584c0-30.4,22.964-55.13,51.191-55.13c28.234,0,51.204,24.732,51.204,55.13
		C371.625,432.983,371.462,435.535,371.138,438.024z M421.485,409.595c-5.124,8.822-13.708,14.674-23.53,16.372
		c-1.625-31.671-20.524-58.591-46.948-70.534l-13.682-28.046c-3.202-6.564-11.118-9.289-17.683-6.088
		c-6.564,3.202-9.29,11.119-6.088,17.683l4.829,9.9c-25.948,0.709-48.772,14.836-62.376,36.032
		c-13.602-21.197-36.427-35.324-62.376-36.032l4.829-9.9c3.202-6.564,0.476-14.482-6.088-17.683
		c-6.563-3.2-14.48-0.476-17.683,6.088l-13.682,28.046c-26.415,11.939-45.309,38.845-46.946,70.501
		c-9.757-1.735-18.513-7.564-23.604-16.329c-6.107-10.512-6.14-23.125-0.098-33.723l64.933-113.457l-0.003-0.02
		c26.507,25.371,62.273,39.624,100.717,39.624c38.474,0,74.256-14.269,100.771-39.667v0.001l64.833,113.488
		C427.662,386.463,427.594,399.077,421.485,409.595z"/>
	<circle style="fill:#231F20;" cx="207.328" cy="151.853" r="13.224"/>
	<circle style="fill:#231F20;" cx="304.684" cy="151.853" r="13.224"/>
	<ellipse style="fill:#231F20;" cx="256.006" cy="214.84" rx="26.448" ry="13.224"/>
	<path style="fill:#231F20;" d="M191.586,416.097c-6.771,0-14.316,5.879-14.316,14.316s7.544,14.316,14.316,14.316
		c6.771,0,14.316-5.879,14.316-14.316S198.357,416.097,191.586,416.097z"/>
	<path style="fill:#231F20;" d="M320.429,416.097c-6.771,0-14.316,5.879-14.316,14.316s7.546,14.316,14.316,14.316
		c6.771,0,14.316-5.879,14.316-14.316S327.2,416.097,320.429,416.097z"/>
</g>
<g>
</g>
<g>
</g>
<g>
</g>
<g>
</g>
<g>
</g>
<g>
</g>
<g>
</g>
<g>
</g>
<g>
</g>
<g>
</g>
<g>
</g>
<g>
</g>
<g>
</g>
<g>
</g>
<g>
</g>
</svg>
